<svg width="34" height="35" viewBox="0 0 34 35" fill="none" xmlns="http://www.w3.org/2000/svg">
<rect width="33.6055" height="33.6055" rx="9.11579" transform="matrix(-1 0 0 1 33.7266 0.614624)" fill="#F3F3F3"/>
<path d="M17.2749 7.18174L9.62109 14.8181L13.6945 20.6213L21.2946 13.0877L23.055 15.616L22.982 5.38559L15.9861 5.37335L17.2749 7.18174Z" fill="url(#paint0_linear_1850_2)"/>
<path d="M16.5747 27.6529L24.2285 20.0165L20.1551 14.2133L12.555 21.7469L10.7946 19.2186L10.8676 29.449L17.8635 29.4612L16.5747 27.6529Z" fill="url(#paint1_linear_1850_2)"/>
<path d="M21.2236 15.7583L13.7168 20.6491L20.161 14.2142L21.2236 15.7583Z" fill="url(#paint2_linear_1850_2)" fill-opacity="0.6"/>
<defs>
<linearGradient id="paint0_linear_1850_2" x1="23.055" y1="5.37335" x2="11.0869" y2="17.4378" gradientUnits="userSpaceOnUse">
<stop offset="0.0377059" stop-color="#2C60F4"/>
<stop offset="1" stop-color="#D6038E"/>
</linearGradient>
<linearGradient id="paint1_linear_1850_2" x1="21.5011" y1="17.0605" x2="10.2992" y2="29.4612" gradientUnits="userSpaceOnUse">
<stop stop-color="#3858EE"/>
<stop offset="0.89485" stop-color="#DA0190"/>
</linearGradient>
<linearGradient id="paint2_linear_1850_2" x1="21.1869" y1="14.2142" x2="13.9819" y2="20.6491" gradientUnits="userSpaceOnUse">
<stop stop-color="#2349C4"/>
<stop offset="1" stop-color="#66259D"/>
</linearGradient>
</defs>
</svg>
